<svg xmlns="http://www.w3.org/2000/svg" xmlns:xlink="http://www.w3.org/1999/xlink" width="1024" zoomAndPan="magnify" viewBox="0 0 768 767.999994" height="1024" preserveAspectRatio="xMidYMid meet" version="1.0"><defs><clipPath id="583dc79f8a"><path d="M 197.804688 248 L 570.554688 248 L 570.554688 542.246094 L 197.804688 542.246094 Z M 197.804688 248 " clip-rule="nonzero"/></clipPath><clipPath id="06e819819c"><path d="M 511 300 L 570.554688 300 L 570.554688 313 L 511 313 Z M 511 300 " clip-rule="nonzero"/></clipPath><clipPath id="7c0ff58d3a"><path d="M 374 225.746094 L 391 225.746094 L 391 280 L 374 280 Z M 374 225.746094 " clip-rule="nonzero"/></clipPath><clipPath id="9dc734e6bc"><path d="M 228 225.746094 L 245 225.746094 L 245 280 L 228 280 Z M 228 225.746094 " clip-rule="nonzero"/></clipPath><clipPath id="87450c3733"><path d="M 275 225.746094 L 292 225.746094 L 292 280 L 275 280 Z M 275 225.746094 " clip-rule="nonzero"/></clipPath><clipPath id="733ecec11f"><path d="M 322 225.746094 L 339 225.746094 L 339 280 L 322 280 Z M 322 225.746094 " clip-rule="nonzero"/></clipPath><clipPath id="9e7daccbef"><path d="M 426 225.746094 L 443 225.746094 L 443 280 L 426 280 Z M 426 225.746094 " clip-rule="nonzero"/></clipPath><clipPath id="2a2c311333"><path d="M 472 225.746094 L 489 225.746094 L 489 280 L 472 280 Z M 472 225.746094 " clip-rule="nonzero"/></clipPath><clipPath id="9aa1104754"><path d="M 520 225.746094 L 536 225.746094 L 536 280 L 520 280 Z M 520 225.746094 " clip-rule="nonzero"/></clipPath></defs><g clip-path="url(#583dc79f8a)"><path fill="#c1ae8f" d="M 558.640625 512.238281 C 558.402344 522.792969 550.027344 530.082031 539.734375 530.082031 L 229.042969 530.082031 C 219.734375 530.082031 211.121094 524.1875 210.015625 514.414062 C 209.652344 511.207031 209.917969 507.832031 209.917969 504.621094 L 209.917969 284.996094 C 209.917969 281.496094 209.59375 277.695312 210.300781 274.25 C 212.179688 265.0625 220.429688 260.132812 229.277344 260.132812 L 539.929688 260.132812 C 549.992188 260.132812 558.636719 267.578125 558.636719 277.992188 L 558.636719 512.242188 C 558.636719 519.917969 570.542969 519.917969 570.542969 512.242188 L 570.542969 284.429688 C 570.542969 279.910156 570.652344 275.5625 569.734375 271.089844 C 566.945312 257.484375 553.730469 248.242188 540.261719 248.242188 L 242.644531 248.242188 C 229.386719 248.242188 216.253906 247.023438 206.023438 257.683594 C 195.761719 268.382812 198.007812 284.472656 198.007812 298.054688 C 198.007812 345.359375 198.007812 392.667969 198.007812 439.976562 L 198.007812 511.566406 C 198.007812 525.558594 207.207031 537.746094 220.878906 541.179688 C 224.746094 542.148438 228.753906 541.980469 232.703125 541.980469 L 517.886719 541.980469 C 526.1875 541.980469 534.648438 542.449219 542.945312 541.886719 C 558.535156 540.832031 570.199219 527.566406 570.542969 512.246094 C 570.71875 504.578125 558.8125 504.59375 558.636719 512.246094 " fill-opacity="1" fill-rule="nonzero"/></g><g clip-path="url(#06e819819c)"><path fill="#c1ae8f" d="M 517.144531 312.707031 L 564.59375 312.707031 C 572.273438 312.707031 572.273438 300.816406 564.59375 300.816406 L 517.144531 300.816406 C 509.46875 300.816406 509.46875 312.707031 517.144531 312.707031 " fill-opacity="1" fill-rule="nonzero"/></g><path fill="#c1ae8f" d="M 476.589844 312.707031 L 497.300781 312.707031 C 504.976562 312.707031 504.976562 300.816406 497.300781 300.816406 L 476.589844 300.816406 C 468.917969 300.816406 468.917969 312.707031 476.589844 312.707031 " fill-opacity="1" fill-rule="nonzero"/><path fill="#c1ae8f" d="M 203.964844 312.707031 L 455.890625 312.707031 C 463.566406 312.707031 463.566406 300.816406 455.890625 300.816406 L 203.964844 300.816406 C 196.289062 300.816406 196.289062 312.707031 203.964844 312.707031 " fill-opacity="1" fill-rule="nonzero"/><path fill="#c1ae8f" d="M 441.851562 369.554688 L 359.597656 451.730469 C 358.039062 453.285156 356.492188 454.828125 354.929688 456.382812 C 355.652344 455.671875 357.882812 456.683594 357.328125 456.121094 C 355.875 454.671875 354.421875 453.21875 352.960938 451.769531 C 344.730469 443.539062 336.492188 435.316406 328.261719 427.085938 C 319.203125 418.035156 305.171875 432.054688 314.226562 441.105469 C 321.035156 447.90625 327.847656 454.710938 334.65625 461.507812 C 337.570312 464.425781 340.492188 467.34375 343.414062 470.261719 C 350.382812 477.222656 361.890625 477.46875 368.929688 470.433594 C 380.90625 458.476562 392.886719 446.511719 404.863281 434.546875 C 421.863281 417.554688 438.875 400.558594 455.882812 383.574219 C 464.941406 374.527344 450.90625 360.507812 441.851562 369.554688 " fill-opacity="1" fill-rule="nonzero"/><g clip-path="url(#7c0ff58d3a)"><path fill="#c1ae8f" d="M 374.890625 233.503906 L 374.890625 272.289062 C 374.890625 282.511719 390.765625 282.511719 390.765625 272.289062 L 390.765625 233.503906 C 390.765625 223.273438 374.890625 223.273438 374.890625 233.503906 " fill-opacity="1" fill-rule="nonzero"/></g><g clip-path="url(#9dc734e6bc)"><path fill="#c1ae8f" d="M 228.8125 233.503906 L 228.8125 272.289062 C 228.8125 282.511719 244.683594 282.511719 244.683594 272.289062 L 244.683594 233.503906 C 244.683594 223.273438 228.8125 223.273438 228.8125 233.503906 " fill-opacity="1" fill-rule="nonzero"/></g><g clip-path="url(#87450c3733)"><path fill="#c1ae8f" d="M 275.195312 233.503906 L 275.195312 272.289062 C 275.195312 282.511719 291.066406 282.511719 291.066406 272.289062 L 291.066406 233.503906 C 291.066406 223.273438 275.195312 223.273438 275.195312 233.503906 " fill-opacity="1" fill-rule="nonzero"/></g><g clip-path="url(#733ecec11f)"><path fill="#c1ae8f" d="M 322.371094 233.503906 L 322.371094 272.289062 C 322.371094 282.511719 338.246094 282.511719 338.246094 272.289062 L 338.246094 233.503906 C 338.246094 223.273438 322.371094 223.273438 322.371094 233.503906 " fill-opacity="1" fill-rule="nonzero"/></g><g clip-path="url(#9e7daccbef)"><path fill="#c1ae8f" d="M 426.523438 233.503906 L 426.523438 272.289062 C 426.523438 282.511719 442.398438 282.511719 442.398438 272.289062 L 442.398438 233.503906 C 442.398438 223.273438 426.523438 223.273438 426.523438 233.503906 " fill-opacity="1" fill-rule="nonzero"/></g><g clip-path="url(#2a2c311333)"><path fill="#c1ae8f" d="M 472.902344 233.503906 L 472.902344 272.289062 C 472.902344 282.511719 488.773438 282.511719 488.773438 272.289062 L 488.773438 233.503906 C 488.773438 223.273438 472.902344 223.273438 472.902344 233.503906 " fill-opacity="1" fill-rule="nonzero"/></g><g clip-path="url(#9aa1104754)"><path fill="#c1ae8f" d="M 520.070312 233.503906 L 520.070312 272.289062 C 520.070312 282.511719 535.945312 282.511719 535.945312 272.289062 L 535.945312 233.503906 C 535.945312 223.273438 520.070312 223.273438 520.070312 233.503906 " fill-opacity="1" fill-rule="nonzero"/></g></svg>