<svg xmlns="http://www.w3.org/2000/svg" xmlns:xlink="http://www.w3.org/1999/xlink" width="1024" zoomAndPan="magnify" viewBox="0 0 768 767.999994" height="1024" preserveAspectRatio="xMidYMid meet" version="1.0"><defs><clipPath id="54f51bf23f"><path d="M 157 264.0625 L 611 264.0625 L 611 504.0625 L 157 504.0625 Z M 157 264.0625 " clip-rule="nonzero"/></clipPath></defs><g clip-path="url(#54f51bf23f)"><path fill="#c1ae8f" d="M 170.382812 384.078125 C 178.378906 392.644531 200.238281 414.882812 231.035156 436.859375 C 266.820312 462.402344 322.382812 492.851562 383.878906 492.851562 C 445.375 492.851562 500.941406 462.402344 536.722656 436.859375 C 567.523438 414.882812 589.378906 392.644531 597.375 384.078125 C 589.378906 375.507812 567.523438 353.273438 536.722656 331.292969 C 500.941406 305.753906 445.375 275.304688 383.878906 275.304688 C 322.382812 275.304688 266.820312 305.753906 231.035156 331.292969 C 200.238281 353.273438 178.378906 375.507812 170.382812 384.078125 Z M 383.878906 504.082031 C 355.304688 504.082031 325.640625 497.929688 295.71875 485.796875 C 271.910156 476.144531 247.878906 462.699219 224.289062 445.84375 C 184.199219 417.1875 159.585938 388.945312 158.558594 387.753906 C 156.730469 385.640625 156.730469 382.511719 158.558594 380.402344 C 159.585938 379.210938 184.199219 350.96875 224.289062 322.3125 C 247.878906 305.453125 271.910156 292.011719 295.71875 282.355469 C 325.640625 270.226562 355.304688 264.074219 383.878906 264.074219 C 412.453125 264.074219 442.113281 270.226562 472.042969 282.355469 C 495.847656 292.011719 519.878906 305.453125 543.46875 322.3125 C 583.554688 350.96875 608.171875 379.210938 609.199219 380.402344 C 611.027344 382.511719 611.027344 385.640625 609.199219 387.753906 C 608.171875 388.945312 583.554688 417.1875 543.46875 445.84375 C 519.878906 462.699219 495.847656 476.144531 472.042969 485.796875 C 442.113281 497.929688 412.453125 504.082031 383.878906 504.082031 " fill-opacity="1" fill-rule="nonzero"/></g><path fill="#c1ae8f" d="M 383.878906 368.894531 C 375.515625 368.894531 368.710938 375.707031 368.710938 384.078125 C 368.710938 392.449219 375.515625 399.257812 383.878906 399.257812 C 392.242188 399.257812 399.042969 392.449219 399.042969 384.078125 C 399.042969 375.707031 392.242188 368.894531 383.878906 368.894531 Z M 383.878906 410.488281 C 369.328125 410.488281 357.492188 398.644531 357.492188 384.078125 C 357.492188 369.511719 369.328125 357.664062 383.878906 357.664062 C 398.429688 357.664062 410.261719 369.511719 410.261719 384.078125 C 410.261719 398.644531 398.429688 410.488281 383.878906 410.488281 " fill-opacity="1" fill-rule="nonzero"/><path fill="#c1ae8f" d="M 383.878906 343.9375 C 361.769531 343.9375 343.78125 361.941406 343.78125 384.078125 C 343.78125 406.210938 361.769531 424.21875 383.878906 424.21875 C 405.992188 424.21875 423.976562 406.210938 423.976562 384.078125 C 423.976562 361.941406 405.992188 343.9375 383.878906 343.9375 Z M 383.878906 435.449219 C 355.582031 435.449219 332.5625 412.402344 332.5625 384.078125 C 332.5625 355.753906 355.582031 332.707031 383.878906 332.707031 C 412.175781 332.707031 435.195312 355.753906 435.195312 384.078125 C 435.195312 412.402344 412.175781 435.449219 383.878906 435.449219 " fill-opacity="1" fill-rule="nonzero"/><path fill="#c1ae8f" d="M 383.878906 318.980469 C 348.023438 318.980469 318.851562 348.183594 318.851562 384.078125 C 318.851562 419.972656 348.023438 449.175781 383.878906 449.175781 C 419.734375 449.175781 448.90625 419.972656 448.90625 384.078125 C 448.90625 348.183594 419.734375 318.980469 383.878906 318.980469 Z M 383.878906 460.40625 C 341.835938 460.40625 307.628906 426.164062 307.628906 384.078125 C 307.628906 341.988281 341.835938 307.75 383.878906 307.75 C 425.921875 307.75 460.128906 341.988281 460.128906 384.078125 C 460.128906 426.164062 425.921875 460.40625 383.878906 460.40625 " fill-opacity="1" fill-rule="nonzero"/><path fill="#c1ae8f" d="M 383.878906 294.019531 C 334.273438 294.019531 293.917969 334.421875 293.917969 384.078125 C 293.917969 433.734375 334.273438 474.132812 383.878906 474.132812 C 433.484375 474.132812 473.839844 433.734375 473.839844 384.078125 C 473.839844 334.421875 433.484375 294.019531 383.878906 294.019531 Z M 383.878906 485.363281 C 356.863281 485.363281 331.457031 474.824219 312.339844 455.683594 C 293.226562 436.542969 282.699219 411.117188 282.699219 384.078125 C 282.699219 328.226562 328.089844 282.792969 383.878906 282.792969 C 439.667969 282.792969 485.058594 328.226562 485.058594 384.078125 C 485.058594 439.925781 439.667969 485.363281 383.878906 485.363281 " fill-opacity="1" fill-rule="nonzero"/></svg>