<svg xmlns="http://www.w3.org/2000/svg" xmlns:xlink="http://www.w3.org/1999/xlink" width="1024" zoomAndPan="magnify" viewBox="0 0 768 767.999994" height="1024" preserveAspectRatio="xMidYMid meet" version="1.0"><defs><clipPath id="7e06e26116"><path d="M 190.808594 236.683594 L 577.058594 236.683594 L 577.058594 531.433594 L 190.808594 531.433594 Z M 190.808594 236.683594 " clip-rule="nonzero"/></clipPath><clipPath id="3dd8926184"><path d="M 444 274 L 577.058594 274 L 577.058594 354 L 444 354 Z M 444 274 " clip-rule="nonzero"/></clipPath><clipPath id="17b7e21daf"><path d="M 190.808594 274 L 417 274 L 417 390 L 190.808594 390 Z M 190.808594 274 " clip-rule="nonzero"/></clipPath></defs><g clip-path="url(#7e06e26116)"><path fill="#c1ae8f" d="M 565.117188 500.589844 C 564.878906 511.550781 556.195312 519.359375 545.449219 519.359375 L 226.269531 519.359375 C 222.632812 519.359375 219.222656 519.46875 215.660156 518.433594 C 206.609375 515.808594 202.738281 507.078125 202.738281 498.410156 L 202.738281 268.457031 C 202.738281 257.902344 210.738281 248.996094 221.550781 248.996094 L 546.207031 248.996094 C 556.945312 248.996094 565.121094 257.730469 565.121094 268.308594 L 565.121094 500.59375 C 565.121094 508.289062 577.050781 508.289062 577.050781 500.59375 L 577.050781 274.589844 C 577.050781 268.511719 577.242188 262.609375 575 256.789062 C 570.296875 244.613281 558.550781 237.058594 545.636719 237.058594 C 535.550781 237.058594 525.464844 237.058594 515.382812 237.058594 L 242.902344 237.058594 C 234.328125 237.058594 225.160156 236.171875 216.636719 237.484375 C 201.648438 239.800781 190.808594 253.175781 190.808594 268.195312 L 190.808594 497.867188 C 190.808594 507.25 193.347656 515.839844 200.164062 522.660156 C 210.121094 532.625 223.550781 531.296875 236.285156 531.296875 L 543.488281 531.296875 C 546.097656 531.296875 548.609375 531.273438 551.226562 530.867188 C 566.140625 528.566406 576.722656 515.457031 577.050781 500.589844 C 577.21875 492.882812 565.289062 492.902344 565.121094 500.589844 " fill-opacity="1" fill-rule="nonzero"/></g><g clip-path="url(#3dd8926184)"><path fill="#c1ae8f" d="M 453.910156 352.222656 C 488.5625 333.03125 523.207031 313.839844 557.851562 294.644531 C 563.265625 291.644531 568.683594 288.648438 574.097656 285.644531 C 580.828125 281.914062 574.8125 271.605469 568.078125 275.335938 C 533.425781 294.527344 498.789062 313.722656 464.136719 332.914062 C 458.730469 335.914062 453.304688 338.914062 447.890625 341.914062 C 441.164062 345.648438 447.183594 355.953125 453.910156 352.222656 " fill-opacity="1" fill-rule="nonzero"/></g><path fill="#c1ae8f" d="M 432.542969 364.066406 C 435.699219 362.3125 438.855469 360.5625 442.011719 358.820312 C 444.859375 357.242188 445.773438 353.40625 444.152344 350.652344 C 442.492188 347.796875 438.839844 346.929688 435.992188 348.503906 L 426.519531 353.757812 C 423.671875 355.332031 422.765625 359.171875 424.382812 361.925781 C 426.050781 364.78125 429.695312 365.640625 432.542969 364.066406 " fill-opacity="1" fill-rule="nonzero"/><g clip-path="url(#17b7e21daf)"><path fill="#c1ae8f" d="M 193.761719 285.644531 C 224.488281 302.667969 255.21875 319.691406 285.953125 336.71875 L 380.867188 389.296875 C 385.71875 391.984375 393.265625 385.824219 397.351562 383.558594 C 402.863281 380.507812 408.375 377.460938 413.886719 374.402344 C 420.613281 370.671875 414.601562 360.363281 407.867188 364.097656 C 398.878906 369.070312 389.898438 374.046875 380.921875 379.019531 L 386.941406 379.019531 C 356.210938 361.996094 325.488281 344.972656 294.757812 327.945312 C 263.117188 310.417969 231.480469 292.894531 199.84375 275.363281 C 199.824219 275.355469 199.804688 275.347656 199.785156 275.335938 C 193.050781 271.605469 187.03125 281.914062 193.765625 285.644531 " fill-opacity="1" fill-rule="nonzero"/></g></svg>