<svg xmlns="http://www.w3.org/2000/svg" xmlns:xlink="http://www.w3.org/1999/xlink" width="400" zoomAndPan="magnify" viewBox="0 0 300 299.999988" height="400" preserveAspectRatio="xMidYMid meet" version="1.0"><defs><clipPath id="8b37fa1638"><path d="M 150 0 C 67.15625 0 0 67.15625 0 150 C 0 232.84375 67.15625 300 150 300 C 232.84375 300 300 232.84375 300 150 C 300 67.15625 232.84375 0 150 0 " clip-rule="nonzero"/></clipPath><clipPath id="898f5d9b2b"><path d="M 24.074219 71.453125 L 276.074219 71.453125 L 276.074219 228 L 24.074219 228 Z M 24.074219 71.453125 " clip-rule="nonzero"/></clipPath></defs><g clip-path="url(#8b37fa1638)"><rect x="-30" width="360" fill="#f7f2ec" y="-29.999999" height="359.999986" fill-opacity="1"/></g><g clip-path="url(#898f5d9b2b)"><path fill="#9c8a79" d="M 150.074219 109.953125 C 147.4375 109.953125 144.8125 110.132812 142.203125 110.492188 C 139.589844 110.851562 137.015625 111.386719 134.476562 112.097656 C 131.9375 112.808594 129.460938 113.6875 127.042969 114.738281 C 124.625 115.789062 122.292969 117 120.039062 118.371094 C 117.789062 119.738281 115.644531 121.257812 113.601562 122.917969 C 111.558594 124.582031 109.640625 126.378906 107.84375 128.304688 C 106.050781 130.230469 104.394531 132.269531 102.878906 134.421875 C 101.363281 136.574219 100.003906 138.820312 98.796875 141.15625 C 97.589844 143.496094 96.550781 145.90625 95.675781 148.386719 C 94.800781 150.867188 94.101562 153.394531 93.574219 155.972656 C 93.046875 158.546875 92.699219 161.148438 92.53125 163.773438 C 92.363281 166.398438 92.375 169.019531 92.566406 171.644531 C 92.757812 174.265625 93.128906 176.863281 93.675781 179.433594 C 94.226562 182.007812 94.949219 184.527344 95.84375 187.003906 C 96.738281 189.476562 97.800781 191.875 99.027344 194.203125 C 100.253906 196.53125 101.632812 198.765625 103.167969 200.902344 L 149.125 138.464844 C 149.238281 138.3125 149.375 138.195312 149.542969 138.113281 C 149.710938 138.027344 149.886719 137.984375 150.074219 137.984375 C 150.261719 137.984375 150.441406 138.027344 150.609375 138.113281 C 150.777344 138.195312 150.914062 138.3125 151.023438 138.464844 L 196.980469 200.902344 C 198.515625 198.765625 199.894531 196.53125 201.121094 194.203125 C 202.347656 191.875 203.40625 189.476562 204.304688 187.003906 C 205.199219 184.53125 205.921875 182.007812 206.472656 179.433594 C 207.019531 176.863281 207.390625 174.265625 207.582031 171.644531 C 207.777344 169.019531 207.785156 166.398438 207.617188 163.773438 C 207.449219 161.148438 207.101562 158.550781 206.574219 155.972656 C 206.046875 153.394531 205.347656 150.867188 204.472656 148.386719 C 203.597656 145.90625 202.558594 143.496094 201.351562 141.15625 C 200.148438 138.820312 198.785156 136.574219 197.269531 134.421875 C 195.757812 132.269531 194.101562 130.230469 192.304688 128.304688 C 190.511719 126.378906 188.59375 124.582031 186.550781 122.921875 C 184.507812 121.257812 182.359375 119.738281 180.109375 118.371094 C 177.859375 117 175.527344 115.789062 173.109375 114.738281 C 170.691406 113.6875 168.214844 112.808594 165.675781 112.097656 C 163.136719 111.386719 160.5625 110.851562 157.949219 110.492188 C 155.335938 110.132812 152.710938 109.953125 150.074219 109.953125 Z M 104.644531 202.871094 L 150.074219 141.148438 L 195.503906 202.871094 C 194.832031 203.726562 194.136719 204.5625 193.417969 205.378906 C 192.699219 206.199219 191.957031 206.992188 191.191406 207.769531 C 190.425781 208.542969 189.640625 209.296875 188.832031 210.027344 C 188.027344 210.757812 187.199219 211.464844 186.351562 212.148438 C 185.503906 212.832031 184.636719 213.492188 183.753906 214.125 C 182.867188 214.761719 181.964844 215.371094 181.046875 215.953125 C 180.125 216.539062 179.191406 217.09375 178.238281 217.625 C 177.289062 218.15625 176.320312 218.660156 175.34375 219.136719 C 174.363281 219.613281 173.371094 220.0625 172.363281 220.480469 C 171.359375 220.902344 170.34375 221.292969 169.3125 221.65625 C 168.285156 222.015625 167.25 222.351562 166.203125 222.65625 C 165.15625 222.957031 164.101562 223.234375 163.039062 223.476562 C 161.976562 223.722656 160.910156 223.9375 159.835938 224.121094 C 158.761719 224.304688 157.679688 224.457031 156.597656 224.582031 C 155.515625 224.703125 154.429688 224.796875 153.339844 224.855469 C 152.253906 224.917969 151.164062 224.949219 150.074219 224.949219 C 148.984375 224.949219 147.894531 224.917969 146.804688 224.855469 C 145.71875 224.796875 144.632812 224.703125 143.546875 224.582031 C 142.464844 224.457031 141.386719 224.304688 140.3125 224.121094 C 139.238281 223.9375 138.167969 223.722656 137.105469 223.476562 C 136.042969 223.234375 134.988281 222.957031 133.945312 222.65625 C 132.898438 222.351562 131.859375 222.015625 130.832031 221.65625 C 129.804688 221.292969 128.789062 220.902344 127.78125 220.480469 C 126.777344 220.0625 125.785156 219.613281 124.804688 219.136719 C 123.824219 218.660156 122.859375 218.15625 121.90625 217.625 C 120.957031 217.09375 120.019531 216.539062 119.101562 215.953125 C 118.179688 215.371094 117.277344 214.761719 116.394531 214.125 C 115.507812 213.492188 114.644531 212.832031 113.796875 212.148438 C 112.949219 211.464844 112.121094 210.757812 111.3125 210.027344 C 110.503906 209.296875 109.71875 208.542969 108.953125 207.769531 C 108.191406 206.992188 107.449219 206.199219 106.730469 205.378906 C 106.011719 204.5625 105.316406 203.726562 104.644531 202.871094 Z M 273.675781 218.125 L 243.367188 188.882812 C 243.253906 188.777344 243.128906 188.695312 242.988281 188.636719 C 242.847656 188.582031 242.699219 188.550781 242.546875 188.550781 C 242.394531 188.550781 242.25 188.582031 242.105469 188.636719 C 241.964844 188.695312 241.839844 188.777344 241.730469 188.882812 L 210.386719 219.117188 L 198.449219 202.898438 C 199.539062 201.421875 200.558594 199.894531 201.503906 198.324219 C 202.453125 196.753906 203.328125 195.140625 204.128906 193.492188 C 204.925781 191.839844 205.648438 190.15625 206.292969 188.4375 C 206.9375 186.71875 207.503906 184.976562 207.988281 183.207031 C 208.46875 181.4375 208.871094 179.648438 209.191406 177.84375 C 209.507812 176.035156 209.746094 174.21875 209.894531 172.390625 C 210.046875 170.5625 210.113281 168.734375 210.097656 166.898438 C 210.082031 165.066406 209.980469 163.234375 209.792969 161.410156 C 209.609375 159.585938 209.339844 157.773438 208.984375 155.972656 C 208.632812 154.175781 208.199219 152.394531 207.679688 150.632812 C 207.164062 148.875 206.566406 147.140625 205.890625 145.4375 C 205.214844 143.730469 204.460938 142.058594 203.628906 140.421875 C 202.800781 138.789062 201.894531 137.191406 200.917969 135.640625 C 199.941406 134.085938 198.894531 132.582031 197.777344 131.121094 C 196.660156 129.664062 195.480469 128.261719 194.234375 126.914062 C 192.988281 125.5625 191.683594 124.273438 190.316406 123.042969 C 188.953125 121.816406 187.535156 120.648438 186.0625 119.550781 C 184.589844 118.449219 183.070312 117.421875 181.503906 116.460938 C 179.9375 115.5 178.332031 114.613281 176.683594 113.800781 C 175.035156 112.988281 173.351562 112.253906 171.632812 111.59375 C 169.917969 110.933594 168.175781 110.355469 166.40625 109.855469 C 164.636719 109.359375 162.847656 108.941406 161.039062 108.605469 C 159.230469 108.269531 157.410156 108.019531 155.578125 107.851562 C 153.746094 107.683594 151.914062 107.597656 150.074219 107.597656 C 148.234375 107.597656 146.398438 107.683594 144.566406 107.851562 C 142.738281 108.019531 140.917969 108.269531 139.109375 108.605469 C 137.300781 108.941406 135.511719 109.359375 133.742188 109.855469 C 131.972656 110.355469 130.230469 110.933594 128.511719 111.59375 C 126.796875 112.253906 125.113281 112.988281 123.464844 113.800781 C 121.816406 114.613281 120.210938 115.5 118.640625 116.460938 C 117.074219 117.421875 115.554688 118.449219 114.085938 119.550781 C 112.613281 120.648438 111.195312 121.816406 109.828125 123.042969 C 108.464844 124.273438 107.160156 125.5625 105.914062 126.914062 C 104.667969 128.261719 103.488281 129.664062 102.371094 131.121094 C 101.253906 132.582031 100.207031 134.085938 99.230469 135.640625 C 98.253906 137.191406 97.347656 138.789062 96.519531 140.421875 C 95.6875 142.058594 94.933594 143.730469 94.257812 145.4375 C 93.582031 147.140625 92.984375 148.875 92.464844 150.632812 C 91.949219 152.394531 91.515625 154.175781 91.160156 155.972656 C 90.808594 157.773438 90.539062 159.585938 90.355469 161.410156 C 90.167969 163.234375 90.066406 165.066406 90.050781 166.898438 C 90.03125 168.734375 90.097656 170.5625 90.25 172.390625 C 90.402344 174.21875 90.636719 176.035156 90.957031 177.84375 C 91.277344 179.648438 91.675781 181.4375 92.160156 183.207031 C 92.644531 184.976562 93.207031 186.71875 93.851562 188.4375 C 94.496094 190.15625 95.21875 191.839844 96.019531 193.492188 C 96.820312 195.140625 97.691406 196.753906 98.640625 198.324219 C 99.589844 199.894531 100.609375 201.421875 101.695312 202.898438 L 89.757812 219.117188 L 58.421875 188.882812 C 58.3125 188.777344 58.1875 188.695312 58.042969 188.636719 C 57.902344 188.582031 57.753906 188.550781 57.601562 188.550781 C 57.449219 188.550781 57.304688 188.582031 57.164062 188.636719 C 57.019531 188.695312 56.894531 188.777344 56.785156 188.882812 L 26.472656 218.125 L 26.472656 118.195312 C 26.472656 117.707031 26.519531 117.222656 26.609375 116.746094 C 26.699219 116.265625 26.835938 115.800781 27.015625 115.347656 C 27.195312 114.894531 27.417969 114.460938 27.679688 114.046875 C 27.941406 113.636719 28.238281 113.253906 28.574219 112.898438 C 28.90625 112.542969 29.273438 112.222656 29.667969 111.933594 C 30.066406 111.648438 30.484375 111.402344 30.925781 111.195312 C 31.367188 110.988281 31.828125 110.824219 32.300781 110.703125 C 32.773438 110.582031 33.253906 110.503906 33.742188 110.476562 L 85.726562 107.253906 C 86.101562 107.234375 86.398438 107.070312 86.617188 106.765625 L 107.78125 77.050781 C 108.507812 76.03125 109.429688 75.230469 110.546875 74.65625 C 111.664062 74.082031 112.847656 73.796875 114.105469 73.796875 L 186.050781 73.796875 C 187.308594 73.796875 188.496094 74.082031 189.609375 74.65625 C 190.726562 75.230469 191.648438 76.03125 192.375 77.050781 L 213.507812 106.726562 C 213.722656 107.054688 214.027344 107.234375 214.425781 107.257812 L 266.410156 110.476562 C 266.898438 110.503906 267.378906 110.582031 267.855469 110.703125 C 268.328125 110.824219 268.785156 110.988281 269.226562 111.195312 C 269.671875 111.402344 270.089844 111.648438 270.484375 111.933594 C 270.882812 112.222656 271.246094 112.542969 271.582031 112.898438 C 271.914062 113.253906 272.214844 113.636719 272.476562 114.046875 C 272.738281 114.460938 272.957031 114.894531 273.136719 115.347656 C 273.316406 115.800781 273.453125 116.265625 273.546875 116.746094 C 273.636719 117.222656 273.683594 117.707031 273.683594 118.195312 Z M 276.042969 118.195312 L 276.042969 220.898438 C 276.035156 221.214844 275.921875 221.484375 275.703125 221.710938 C 275.597656 221.824219 275.46875 221.910156 275.328125 221.972656 C 275.183594 222.035156 275.035156 222.066406 274.878906 222.066406 C 274.722656 222.070312 274.574219 222.042969 274.425781 221.984375 C 274.28125 221.929688 274.152344 221.847656 274.042969 221.738281 L 242.546875 191.355469 L 211.121094 221.675781 C 211.066406 221.738281 211.003906 221.796875 210.933594 221.84375 C 210.808594 221.9375 210.667969 222.003906 210.515625 222.039062 C 210.367188 222.078125 210.210938 222.085938 210.058594 222.0625 C 209.902344 222.035156 209.757812 221.984375 209.625 221.902344 C 209.492188 221.820312 209.378906 221.71875 209.285156 221.59375 L 196.957031 204.84375 C 195.570312 206.574219 194.09375 208.21875 192.523438 209.785156 C 191.78125 210.527344 191.019531 211.25 190.234375 211.949219 C 189.453125 212.652344 188.65625 213.332031 187.835938 213.992188 C 187.019531 214.652344 186.183594 215.289062 185.332031 215.90625 C 184.484375 216.519531 183.617188 217.113281 182.734375 217.683594 C 181.851562 218.253906 180.953125 218.800781 180.042969 219.324219 C 179.132812 219.847656 178.207031 220.347656 177.269531 220.824219 C 176.332031 221.296875 175.382812 221.746094 174.421875 222.171875 C 173.460938 222.597656 172.488281 222.996094 171.503906 223.371094 C 170.523438 223.746094 169.53125 224.09375 168.53125 224.417969 C 167.527344 224.738281 166.519531 225.035156 165.503906 225.304688 C 164.488281 225.574219 163.464844 225.816406 162.4375 226.03125 C 161.40625 226.25 160.371094 226.4375 159.332031 226.597656 C 158.292969 226.761719 157.25 226.894531 156.207031 227.003906 C 155.160156 227.109375 154.109375 227.1875 153.058594 227.242188 C 152.011719 227.292969 150.960938 227.316406 149.90625 227.316406 C 148.855469 227.3125 147.804688 227.28125 146.753906 227.222656 C 145.703125 227.164062 144.65625 227.078125 143.609375 226.964844 C 142.566406 226.855469 141.523438 226.714844 140.484375 226.546875 C 139.449219 226.378906 138.414062 226.183594 137.386719 225.960938 C 136.359375 225.738281 135.335938 225.492188 134.324219 225.214844 C 133.308594 224.941406 132.300781 224.640625 131.300781 224.3125 C 130.304688 223.984375 129.3125 223.628906 128.332031 223.25 C 127.351562 222.871094 126.382812 222.464844 125.425781 222.035156 C 124.464844 221.601562 123.519531 221.148438 122.582031 220.667969 C 121.648438 220.1875 120.726562 219.683594 119.820312 219.152344 C 118.910156 218.625 118.015625 218.074219 117.136719 217.496094 C 116.257812 216.921875 115.394531 216.324219 114.546875 215.703125 C 113.699219 215.082031 112.867188 214.441406 112.054688 213.777344 C 111.242188 213.113281 110.445312 212.425781 109.667969 211.722656 C 108.890625 211.015625 108.128906 210.289062 107.390625 209.542969 C 106.652344 208.796875 105.933594 208.035156 105.234375 207.25 C 104.535156 206.464844 103.855469 205.664062 103.199219 204.847656 L 90.871094 221.59375 L 90.765625 221.714844 C 90.65625 221.828125 90.53125 221.914062 90.386719 221.976562 C 90.242188 222.039062 90.09375 222.070312 89.9375 222.070312 C 89.78125 222.074219 89.632812 222.046875 89.488281 221.988281 C 89.34375 221.933594 89.214844 221.851562 89.101562 221.742188 L 57.609375 191.359375 L 26.195312 221.664062 C 26.035156 221.847656 25.835938 221.972656 25.597656 222.035156 C 25.359375 222.097656 25.125 222.085938 24.890625 222.003906 C 24.660156 221.917969 24.472656 221.773438 24.332031 221.574219 C 24.1875 221.371094 24.117188 221.148438 24.117188 220.902344 L 24.117188 118.195312 C 24.117188 117.558594 24.175781 116.925781 24.296875 116.304688 C 24.417969 115.679688 24.59375 115.070312 24.828125 114.476562 C 25.066406 113.886719 25.355469 113.324219 25.695312 112.785156 C 26.039062 112.25 26.429688 111.75 26.867188 111.285156 C 27.300781 110.820312 27.78125 110.402344 28.296875 110.03125 C 28.8125 109.65625 29.359375 109.335938 29.9375 109.0625 C 30.515625 108.792969 31.113281 108.578125 31.730469 108.421875 C 32.347656 108.265625 32.976562 108.164062 33.613281 108.125 L 85.03125 104.941406 L 105.855469 75.695312 C 106.324219 75.039062 106.863281 74.445312 107.472656 73.917969 C 108.082031 73.390625 108.746094 72.941406 109.460938 72.570312 C 110.179688 72.203125 110.929688 71.921875 111.714844 71.730469 C 112.5 71.542969 113.292969 71.445312 114.101562 71.445312 L 186.050781 71.445312 C 186.855469 71.445312 187.652344 71.542969 188.4375 71.730469 C 189.21875 71.921875 189.972656 72.203125 190.6875 72.570312 C 191.40625 72.941406 192.066406 73.390625 192.675781 73.917969 C 193.285156 74.445312 193.824219 75.039062 194.292969 75.695312 L 215.125 104.945312 L 266.546875 108.132812 C 267.183594 108.171875 267.8125 108.269531 268.429688 108.425781 C 269.046875 108.582031 269.644531 108.796875 270.222656 109.066406 C 270.800781 109.339844 271.347656 109.660156 271.863281 110.035156 C 272.378906 110.40625 272.855469 110.824219 273.292969 111.289062 C 273.730469 111.753906 274.121094 112.253906 274.464844 112.789062 C 274.804688 113.328125 275.09375 113.890625 275.328125 114.484375 C 275.566406 115.074219 275.742188 115.683594 275.863281 116.308594 C 275.984375 116.933594 276.042969 117.5625 276.042969 118.199219 Z M 276.042969 118.195312 " fill-opacity="1" fill-rule="evenodd"/></g></svg>