<svg xmlns="http://www.w3.org/2000/svg" xmlns:xlink="http://www.w3.org/1999/xlink" width="300" zoomAndPan="magnify" viewBox="0 0 224.87999 74.999997" height="100" preserveAspectRatio="xMidYMid meet" version="1.0"><defs><filter x="0%" y="0%" width="100%" height="100%" id="5d95c2c757"><feColorMatrix values="0 0 0 0 1 0 0 0 0 1 0 0 0 0 1 0 0 0 1 0" color-interpolation-filters="sRGB"/></filter><g/><clipPath id="0e9c56aa86"><path d="M 78.527344 1.523438 L 145.992188 1.523438 L 145.992188 43.5 L 78.527344 43.5 Z M 78.527344 1.523438 " clip-rule="nonzero"/></clipPath><mask id="b8f5f0d594"><g filter="url(#5d95c2c757)"><rect x="-22.487999" width="269.855988" fill="#000000" y="-7.5" height="89.999996" fill-opacity="0.6471"/></g></mask><clipPath id="837138f820"><path d="M 0.078125 2 L 4 2 L 4 7 L 0.078125 7 Z M 0.078125 2 " clip-rule="nonzero"/></clipPath><clipPath id="d748138a8f"><rect x="0" width="78" y="0" height="9"/></clipPath></defs><g clip-path="url(#0e9c56aa86)"><path fill="#a1907f" d="M 112.261719 11.832031 C 110.84375 11.832031 109.449219 12.023438 108.085938 12.40625 C 106.71875 12.789062 105.429688 13.351562 104.222656 14.085938 C 103.011719 14.824219 101.921875 15.710938 100.957031 16.746094 C 99.992188 17.785156 99.183594 18.929688 98.535156 20.191406 C 97.886719 21.449219 97.421875 22.769531 97.136719 24.15625 C 96.851562 25.542969 96.761719 26.941406 96.867188 28.355469 C 96.96875 29.765625 97.261719 31.136719 97.746094 32.46875 C 98.226562 33.796875 98.878906 35.039062 99.703125 36.191406 L 112.007812 19.46875 C 112.070312 19.382812 112.152344 19.339844 112.261719 19.339844 C 112.367188 19.339844 112.453125 19.382812 112.515625 19.46875 L 124.816406 36.191406 C 125.640625 35.039062 126.292969 33.796875 126.777344 32.46875 C 127.257812 31.136719 127.550781 29.765625 127.652344 28.355469 C 127.757812 26.941406 127.667969 25.542969 127.382812 24.15625 C 127.101562 22.769531 126.636719 21.449219 125.984375 20.191406 C 125.335938 18.929688 124.53125 17.785156 123.566406 16.746094 C 122.597656 15.710938 121.511719 14.824219 120.300781 14.085938 C 119.089844 13.351562 117.800781 12.789062 116.4375 12.40625 C 115.070312 12.023438 113.679688 11.832031 112.261719 11.832031 Z M 100.101562 36.71875 L 112.261719 20.1875 L 124.421875 36.714844 C 124.0625 37.175781 123.675781 37.613281 123.265625 38.027344 C 122.855469 38.445312 122.425781 38.835938 121.972656 39.199219 C 121.515625 39.566406 121.042969 39.90625 120.550781 40.21875 C 120.058594 40.53125 119.550781 40.816406 119.023438 41.074219 C 118.5 41.328125 117.960938 41.550781 117.410156 41.746094 C 116.859375 41.941406 116.300781 42.105469 115.730469 42.234375 C 115.160156 42.367188 114.585938 42.464844 114.007812 42.53125 C 113.425781 42.597656 112.84375 42.628906 112.261719 42.628906 C 111.675781 42.628906 111.09375 42.597656 110.511719 42.53125 C 109.933594 42.464844 109.359375 42.367188 108.789062 42.234375 C 108.21875 42.105469 107.660156 41.941406 107.109375 41.746094 C 106.558594 41.550781 106.019531 41.328125 105.496094 41.074219 C 104.972656 40.816406 104.460938 40.53125 103.96875 40.21875 C 103.476562 39.90625 103.003906 39.566406 102.550781 39.199219 C 102.09375 38.835938 101.664062 38.445312 101.253906 38.027344 C 100.84375 37.613281 100.460938 37.175781 100.097656 36.714844 Z M 145.347656 40.800781 L 137.230469 32.96875 C 137.171875 32.910156 137.097656 32.882812 137.011719 32.882812 C 136.929688 32.882812 136.855469 32.910156 136.792969 32.96875 L 128.40625 41.066406 L 125.210938 36.722656 C 125.792969 35.929688 126.300781 35.089844 126.730469 34.203125 C 127.160156 33.316406 127.503906 32.398438 127.761719 31.449219 C 128.023438 30.5 128.191406 29.535156 128.273438 28.554688 C 128.355469 27.574219 128.34375 26.59375 128.246094 25.613281 C 128.144531 24.632812 127.957031 23.671875 127.679688 22.726562 C 127.402344 21.78125 127.042969 20.871094 126.597656 19.992188 C 126.148438 19.113281 125.628906 18.285156 125.027344 17.503906 C 124.429688 16.71875 123.765625 16 123.03125 15.339844 C 122.300781 14.679688 121.515625 14.089844 120.671875 13.574219 C 119.832031 13.058594 118.953125 12.625 118.03125 12.273438 C 117.109375 11.917969 116.164062 11.652344 115.195312 11.472656 C 114.226562 11.292969 113.246094 11.203125 112.261719 11.203125 C 111.273438 11.203125 110.296875 11.292969 109.324219 11.472656 C 108.355469 11.652344 107.410156 11.917969 106.488281 12.273438 C 105.566406 12.625 104.6875 13.058594 103.847656 13.574219 C 103.007812 14.089844 102.21875 14.679688 101.488281 15.339844 C 100.753906 16 100.089844 16.71875 99.492188 17.503906 C 98.890625 18.285156 98.371094 19.113281 97.925781 19.992188 C 97.480469 20.871094 97.117188 21.78125 96.839844 22.726562 C 96.5625 23.671875 96.375 24.632812 96.273438 25.613281 C 96.175781 26.59375 96.164062 27.574219 96.246094 28.554688 C 96.328125 29.535156 96.5 30.5 96.757812 31.449219 C 97.019531 32.398438 97.363281 33.316406 97.792969 34.203125 C 98.21875 35.089844 98.726562 35.929688 99.3125 36.722656 L 96.117188 41.066406 L 87.726562 32.96875 C 87.664062 32.910156 87.59375 32.882812 87.507812 32.882812 C 87.421875 32.882812 87.351562 32.910156 87.289062 32.96875 L 79.175781 40.800781 L 79.175781 14.039062 C 79.175781 13.777344 79.222656 13.523438 79.320312 13.277344 C 79.417969 13.03125 79.554688 12.8125 79.738281 12.621094 C 79.917969 12.429688 80.128906 12.277344 80.367188 12.164062 C 80.605469 12.054688 80.859375 11.988281 81.121094 11.972656 L 95.035156 11.109375 C 95.136719 11.105469 95.214844 11.0625 95.273438 10.980469 L 100.9375 3.023438 C 101.351562 2.441406 101.917969 2.148438 102.632812 2.152344 L 121.890625 2.152344 C 122.605469 2.148438 123.167969 2.441406 123.582031 3.023438 L 129.238281 10.96875 C 129.296875 11.058594 129.378906 11.105469 129.484375 11.109375 L 143.402344 11.972656 C 143.664062 11.988281 143.914062 12.054688 144.15625 12.164062 C 144.394531 12.277344 144.605469 12.429688 144.785156 12.621094 C 144.964844 12.8125 145.105469 13.03125 145.203125 13.277344 C 145.300781 13.523438 145.347656 13.777344 145.347656 14.039062 Z M 145.980469 14.039062 L 145.980469 41.542969 C 145.976562 41.628906 145.945312 41.699219 145.890625 41.761719 C 145.828125 41.824219 145.753906 41.855469 145.667969 41.859375 C 145.582031 41.859375 145.507812 41.828125 145.445312 41.769531 L 137.011719 33.632812 L 128.601562 41.753906 C 128.585938 41.769531 128.570312 41.785156 128.550781 41.796875 C 128.480469 41.847656 128.402344 41.867188 128.316406 41.855469 C 128.230469 41.84375 128.160156 41.800781 128.109375 41.730469 L 124.808594 37.246094 C 124.4375 37.707031 124.042969 38.148438 123.625 38.566406 C 123.226562 38.964844 122.804688 39.339844 122.367188 39.695312 C 121.929688 40.046875 121.476562 40.378906 121.003906 40.683594 C 120.53125 40.988281 120.042969 41.269531 119.539062 41.523438 C 119.039062 41.777344 118.523438 42.007812 117.996094 42.207031 C 117.46875 42.40625 116.933594 42.578125 116.390625 42.722656 C 115.847656 42.867188 115.296875 42.984375 114.738281 43.070312 C 114.183594 43.15625 113.621094 43.214844 113.058594 43.242188 C 112.496094 43.269531 111.933594 43.269531 111.371094 43.238281 C 110.808594 43.207031 110.25 43.144531 109.695312 43.058594 C 109.136719 42.96875 108.585938 42.847656 108.042969 42.699219 C 107.5 42.554688 106.964844 42.378906 106.441406 42.175781 C 105.914062 41.96875 105.402344 41.738281 104.902344 41.480469 C 104.402344 41.226562 103.914062 40.941406 103.445312 40.632812 C 102.972656 40.324219 102.519531 39.992188 102.082031 39.636719 C 101.648438 39.28125 101.230469 38.902344 100.835938 38.503906 C 100.4375 38.105469 100.066406 37.683594 99.710938 37.246094 L 96.414062 41.730469 L 96.382812 41.761719 C 96.324219 41.824219 96.25 41.855469 96.164062 41.859375 C 96.078125 41.859375 96 41.832031 95.9375 41.769531 L 87.507812 33.632812 L 79.101562 41.75 C 79.007812 41.859375 78.890625 41.890625 78.75 41.839844 C 78.613281 41.789062 78.546875 41.691406 78.542969 41.546875 L 78.542969 14.039062 C 78.542969 13.695312 78.609375 13.363281 78.734375 13.046875 C 78.863281 12.726562 79.042969 12.441406 79.28125 12.191406 C 79.515625 11.9375 79.789062 11.742188 80.101562 11.59375 C 80.414062 11.449219 80.742188 11.367188 81.085938 11.34375 L 94.851562 10.492188 L 100.425781 2.660156 C 100.679688 2.300781 101 2.023438 101.390625 1.824219 C 101.777344 1.621094 102.191406 1.519531 102.632812 1.519531 L 121.890625 1.519531 C 122.328125 1.519531 122.742188 1.621094 123.132812 1.824219 C 123.519531 2.023438 123.84375 2.300781 124.097656 2.660156 L 129.671875 10.492188 L 143.4375 11.34375 C 143.78125 11.367188 144.109375 11.449219 144.421875 11.597656 C 144.734375 11.742188 145.007812 11.941406 145.242188 12.191406 C 145.480469 12.441406 145.660156 12.726562 145.789062 13.046875 C 145.914062 13.367188 145.980469 13.699219 145.980469 14.042969 Z M 145.980469 14.039062 " fill-opacity="1" fill-rule="evenodd"/></g><g fill="#a1907f" fill-opacity="1"><g transform="translate(7.230146, 56.682485)"><g><path d="M 8.144531 -9.84375 L 6.558594 -9.84375 C 6.472656 -9.84375 6.410156 -9.78125 6.410156 -9.734375 L 6.410156 -3.324219 L 1.871094 -9.808594 C 1.859375 -9.832031 1.785156 -9.84375 1.757812 -9.84375 L 0.125 -9.84375 C 0.0625 -9.84375 0 -9.78125 0 -9.734375 L 0 -2.363281 L 1.882812 -2.363281 L 1.882812 -6.523438 L 6.410156 -0.0351562 C 6.421875 -0.0117188 6.496094 0 6.523438 0 L 8.144531 0 C 8.230469 0 8.28125 -0.0625 8.28125 -0.109375 L 8.28125 -9.734375 C 8.28125 -9.78125 8.230469 -9.84375 8.144531 -9.84375 Z M 8.144531 -9.84375 "/></g></g></g><g fill="#a1907f" fill-opacity="1"><g transform="translate(22.692441, 56.682485)"><g><path d="M 7.726562 -0.148438 L 3.988281 -9.769531 C 3.949219 -9.867188 3.777344 -9.867188 3.742188 -9.769531 L 0.0117188 -0.148438 C -0.0234375 -0.0742188 0.0234375 0 0.136719 0 L 1.820312 0 C 1.871094 0 1.933594 -0.0234375 1.945312 -0.0742188 L 3.863281 -5.5625 L 5.808594 -0.0742188 C 5.820312 -0.0234375 5.882812 0 5.917969 0 L 7.617188 0 C 7.703125 0 7.765625 -0.0742188 7.726562 -0.148438 Z M 7.726562 -0.148438 "/></g></g></g><g fill="#a1907f" fill-opacity="1"><g transform="translate(37.576877, 56.682485)"><g><path d="M 2.03125 -6.277344 L 2.03125 -0.109375 C 2.03125 -0.0625 2.078125 0 2.164062 0 L 3.753906 0 C 3.839844 0 3.902344 -0.0625 3.902344 -0.109375 L 3.902344 -6.277344 Z M 0.136719 -8.15625 L 5.785156 -8.15625 C 5.871094 -8.15625 5.917969 -8.207031 5.917969 -8.269531 L 5.917969 -9.734375 C 5.917969 -9.78125 5.871094 -9.84375 5.785156 -9.84375 L 0.136719 -9.84375 C 0.0625 -9.84375 0 -9.78125 0 -9.734375 L 0 -8.269531 C 0 -8.207031 0.0625 -8.15625 0.136719 -8.15625 Z M 0.136719 -8.15625 "/></g></g></g><g fill="#a1907f" fill-opacity="1"><g transform="translate(50.555622, 56.682485)"><g><path d="M 7.726562 -0.148438 L 3.988281 -9.769531 C 3.949219 -9.867188 3.777344 -9.867188 3.742188 -9.769531 L 0.0117188 -0.148438 C -0.0234375 -0.0742188 0.0234375 0 0.136719 0 L 1.820312 0 C 1.871094 0 1.933594 -0.0234375 1.945312 -0.0742188 L 3.863281 -5.5625 L 5.808594 -0.0742188 C 5.820312 -0.0234375 5.882812 0 5.917969 0 L 7.617188 0 C 7.703125 0 7.765625 -0.0742188 7.726562 -0.148438 Z M 7.726562 -0.148438 "/></g></g></g><g fill="#a1907f" fill-opacity="1"><g transform="translate(65.440056, 56.682485)"><g><path d="M 5.316406 -1.832031 L 0 -1.832031 L 0 -0.109375 C 0 -0.0625 0.0625 0 0.136719 0 L 5.316406 0 C 5.402344 0 5.449219 -0.0625 5.449219 -0.109375 L 5.449219 -1.710938 C 5.449219 -1.773438 5.402344 -1.832031 5.316406 -1.832031 Z M 1.882812 -3.714844 L 1.882812 -9.734375 C 1.882812 -9.78125 1.832031 -9.84375 1.757812 -9.84375 L 0.136719 -9.84375 C 0.0625 -9.84375 0 -9.78125 0 -9.734375 L 0 -3.714844 Z M 1.882812 -3.714844 "/></g></g></g><g fill="#a1907f" fill-opacity="1"><g transform="translate(77.939301, 56.682485)"><g><path d="M 4.011719 -1.6875 L 3.027344 -1.6875 L 3.027344 -9.84375 L 1.144531 -9.84375 L 1.144531 -1.6875 L 0.136719 -1.6875 C 0.0625 -1.6875 0 -1.636719 0 -1.574219 L 0 -0.109375 C 0 -0.0625 0.0625 0 0.136719 0 L 4.011719 0 C 4.097656 0 4.148438 -0.0625 4.148438 -0.109375 L 4.148438 -1.574219 C 4.148438 -1.636719 4.097656 -1.6875 4.011719 -1.6875 Z M 4.011719 -1.6875 "/></g></g></g><g fill="#a1907f" fill-opacity="1"><g transform="translate(89.061519, 56.682485)"><g><path d="M 7.726562 -0.148438 L 3.988281 -9.769531 C 3.949219 -9.867188 3.777344 -9.867188 3.742188 -9.769531 L 0.0117188 -0.148438 C -0.0234375 -0.0742188 0.0234375 0 0.136719 0 L 1.820312 0 C 1.871094 0 1.933594 -0.0234375 1.945312 -0.0742188 L 3.863281 -5.5625 L 5.808594 -0.0742188 C 5.820312 -0.0234375 5.882812 0 5.917969 0 L 7.617188 0 C 7.703125 0 7.765625 -0.0742188 7.726562 -0.148438 Z M 7.726562 -0.148438 "/></g></g></g><g fill="#a1907f" fill-opacity="1"><g transform="translate(103.945954, 56.682485)"><g/></g></g><g fill="#a1907f" fill-opacity="1"><g transform="translate(113.789526, 56.682485)"><g><path d="M 0.824219 -8.15625 L 4.292969 -8.15625 L 4.292969 -9.734375 C 4.292969 -9.78125 4.257812 -9.84375 4.171875 -9.84375 L 0.824219 -9.84375 C 0.738281 -9.84375 0.6875 -9.78125 0.6875 -9.734375 L 0.6875 -8.269531 C 0.6875 -8.21875 0.738281 -8.15625 0.824219 -8.15625 Z M 2.425781 -6.472656 L 2.425781 -2.902344 C 2.425781 -2.902344 2.425781 -1.820312 1.355469 -1.820312 L 0.136719 -1.820312 C 0.0625 -1.820312 0 -1.773438 0 -1.710938 L 0 -0.109375 C 0 -0.0625 0.0625 0 0.136719 0 L 1.355469 0 C 1.355469 0 4.292969 0 4.292969 -2.902344 L 4.292969 -6.472656 Z M 2.425781 -6.472656 "/></g></g></g><g fill="#a1907f" fill-opacity="1"><g transform="translate(125.071592, 56.682485)"><g><path d="M 7.726562 -0.148438 L 3.988281 -9.769531 C 3.949219 -9.867188 3.777344 -9.867188 3.742188 -9.769531 L 0.0117188 -0.148438 C -0.0234375 -0.0742188 0.0234375 0 0.136719 0 L 1.820312 0 C 1.871094 0 1.933594 -0.0234375 1.945312 -0.0742188 L 3.863281 -5.5625 L 5.808594 -0.0742188 C 5.820312 -0.0234375 5.882812 0 5.917969 0 L 7.617188 0 C 7.703125 0 7.765625 -0.0742188 7.726562 -0.148438 Z M 7.726562 -0.148438 "/></g></g></g><g fill="#a1907f" fill-opacity="1"><g transform="translate(139.956032, 56.682485)"><g><path d="M 4.515625 -5.464844 C 3.816406 -5.796875 3.125 -5.796875 3.0625 -5.796875 C 2.4375 -5.796875 1.832031 -6.164062 1.832031 -6.878906 C 1.832031 -7.664062 2.386719 -8.070312 3.0625 -8.070312 C 3.703125 -8.070312 4.246094 -7.738281 4.269531 -7.039062 C 4.269531 -7 4.332031 -6.941406 4.40625 -6.941406 L 5.941406 -6.941406 C 6.03125 -6.941406 6.089844 -7 6.078125 -7.039062 C 6.054688 -8.710938 4.75 -9.84375 3.0625 -9.84375 C 1.488281 -9.84375 0 -8.722656 0 -6.878906 C 0 -5.734375 0.578125 -4.859375 1.601562 -4.394531 C 2.3125 -4.0625 2.976562 -4.0625 3.0625 -4.0625 C 3.617188 -4.035156 4.292969 -3.59375 4.292969 -2.867188 C 4.292969 -2.214844 3.714844 -1.773438 3.0625 -1.773438 C 3.0625 -1.773438 3.0625 -1.773438 3.050781 -1.773438 L 3.050781 0 C 3.0625 0 3.0625 0 3.0625 0 C 4.640625 0 6.117188 -1.019531 6.117188 -2.867188 C 6.117188 -4.023438 5.550781 -4.984375 4.515625 -5.464844 Z M 4.515625 -5.464844 "/></g></g></g><g fill="#a1907f" fill-opacity="1"><g transform="translate(153.143789, 56.682485)"><g><path d="M 4.011719 -1.6875 L 3.027344 -1.6875 L 3.027344 -9.84375 L 1.144531 -9.84375 L 1.144531 -1.6875 L 0.136719 -1.6875 C 0.0625 -1.6875 0 -1.636719 0 -1.574219 L 0 -0.109375 C 0 -0.0625 0.0625 0 0.136719 0 L 4.011719 0 C 4.097656 0 4.148438 -0.0625 4.148438 -0.109375 L 4.148438 -1.574219 C 4.148438 -1.636719 4.097656 -1.6875 4.011719 -1.6875 Z M 4.011719 -1.6875 "/></g></g></g><g fill="#a1907f" fill-opacity="1"><g transform="translate(164.266014, 56.682485)"><g><path d="M 5.660156 -4.898438 C 5.660156 -5.414062 5.253906 -5.832031 4.738281 -5.832031 C 4.21875 -5.832031 3.816406 -5.414062 3.816406 -4.898438 C 3.816406 -4.394531 4.21875 -3.972656 4.738281 -3.972656 C 5.253906 -3.972656 5.660156 -4.394531 5.660156 -4.898438 Z M 9.476562 -4.933594 C 9.476562 -7.382812 7.886719 -9.84375 4.75 -9.84375 C 1.5625 -9.84375 0 -7.382812 0 -4.933594 C 0 -2.472656 1.5625 0 4.75 0 C 7.886719 0 9.476562 -2.472656 9.476562 -4.933594 Z M 7.628906 -4.898438 C 7.628906 -3.308594 6.65625 -1.722656 4.75 -1.722656 C 2.816406 -1.722656 1.859375 -3.308594 1.859375 -4.898438 C 1.859375 -6.507812 2.816406 -8.109375 4.75 -8.109375 C 6.65625 -8.109375 7.628906 -6.507812 7.628906 -4.898438 Z M 7.628906 -4.898438 "/></g></g></g><g fill="#a1907f" fill-opacity="1"><g transform="translate(180.970095, 56.682485)"><g><path d="M 8.144531 -9.84375 L 6.558594 -9.84375 C 6.472656 -9.84375 6.410156 -9.78125 6.410156 -9.734375 L 6.410156 -3.324219 L 1.871094 -9.808594 C 1.859375 -9.832031 1.785156 -9.84375 1.757812 -9.84375 L 0.125 -9.84375 C 0.0625 -9.84375 0 -9.78125 0 -9.734375 L 0 -2.363281 L 1.882812 -2.363281 L 1.882812 -6.523438 L 6.410156 -0.0351562 C 6.421875 -0.0117188 6.496094 0 6.523438 0 L 8.144531 0 C 8.230469 0 8.28125 -0.0625 8.28125 -0.109375 L 8.28125 -9.734375 C 8.28125 -9.78125 8.230469 -9.84375 8.144531 -9.84375 Z M 8.144531 -9.84375 "/></g></g></g><g fill="#a1907f" fill-opacity="1"><g transform="translate(196.432395, 56.682485)"><g><path d="M 4.675781 -1.832031 L 1.882812 -1.832031 L 1.882812 -4.046875 L 5.746094 -4.046875 C 5.820312 -4.046875 5.882812 -4.109375 5.882812 -4.160156 L 5.882812 -5.722656 C 5.882812 -5.785156 5.820312 -5.832031 5.746094 -5.832031 L 1.882812 -5.832031 L 1.882812 -8.058594 L 4.675781 -8.058594 L 4.675781 -9.84375 L 0.136719 -9.84375 C 0.0625 -9.84375 0 -9.78125 0 -9.734375 L 0 -0.109375 C 0 -0.0625 0.0625 0 0.136719 0 L 4.675781 0 Z M 4.675781 -1.832031 "/></g></g></g><g fill="#a1907f" fill-opacity="1"><g transform="translate(209.37426, 56.682485)"><g><path d="M 7.851562 -0.183594 L 3.902344 -4.835938 L 7.8125 -9.660156 C 7.898438 -9.746094 7.839844 -9.84375 7.703125 -9.84375 L 5.695312 -9.84375 C 5.671875 -9.84375 5.597656 -9.820312 5.585938 -9.808594 L 1.882812 -5.253906 L 1.882812 -9.734375 C 1.882812 -9.78125 1.832031 -9.84375 1.757812 -9.84375 L 0.136719 -9.84375 C 0.0625 -9.84375 0 -9.78125 0 -9.734375 L 0 -0.601562 C 0 -0.601562 2.398438 -3.324219 2.644531 -3.582031 L 5.511719 -0.0351562 C 5.523438 -0.0234375 5.597656 0 5.625 0 L 7.738281 0 C 7.863281 0 7.925781 -0.0859375 7.851562 -0.183594 Z M 7.851562 -0.183594 "/></g></g></g><g mask="url(#b8f5f0d594)"><g transform="matrix(1, 0, 0, 1, 75, 63)"><g clip-path="url(#d748138a8f)"><g clip-path="url(#837138f820)"><g fill="#a1907f" fill-opacity="1"><g transform="translate(0.27661, 6.885286)"><g><path d="M 0.3125 -4.75 L 1.34375 -4.75 C 1.875 -4.75 2.273438 -4.644531 2.546875 -4.4375 C 2.828125 -4.238281 2.96875 -3.953125 2.96875 -3.578125 C 2.96875 -3.378906 2.914062 -3.195312 2.8125 -3.03125 C 2.71875 -2.875 2.59375 -2.742188 2.4375 -2.640625 C 2.289062 -2.535156 2.117188 -2.453125 1.921875 -2.390625 C 1.722656 -2.335938 1.53125 -2.3125 1.34375 -2.3125 L 1.0625 -2.3125 L 1.0625 -0.46875 C 1.0625 -0.425781 1.066406 -0.382812 1.078125 -0.34375 C 1.085938 -0.300781 1.101562 -0.257812 1.125 -0.21875 C 1.144531 -0.175781 1.164062 -0.140625 1.1875 -0.109375 C 1.21875 -0.0859375 1.253906 -0.078125 1.296875 -0.078125 L 1.328125 -0.078125 L 1.328125 0 L 0.3125 0 L 0.3125 -0.078125 L 0.359375 -0.078125 C 0.390625 -0.078125 0.414062 -0.0859375 0.4375 -0.109375 C 0.46875 -0.140625 0.492188 -0.175781 0.515625 -0.21875 C 0.535156 -0.257812 0.550781 -0.300781 0.5625 -0.34375 C 0.570312 -0.382812 0.578125 -0.425781 0.578125 -0.46875 L 0.578125 -4.3125 C 0.578125 -4.375 0.554688 -4.445312 0.515625 -4.53125 C 0.484375 -4.625 0.429688 -4.675781 0.359375 -4.6875 L 0.3125 -4.6875 Z M 1.0625 -4.5 L 1.0625 -2.5625 L 1.28125 -2.5625 C 1.46875 -2.5625 1.640625 -2.585938 1.796875 -2.640625 C 1.953125 -2.691406 2.078125 -2.757812 2.171875 -2.84375 C 2.273438 -2.925781 2.351562 -3.023438 2.40625 -3.140625 C 2.457031 -3.253906 2.484375 -3.367188 2.484375 -3.484375 C 2.484375 -3.617188 2.457031 -3.75 2.40625 -3.875 C 2.363281 -4 2.289062 -4.109375 2.1875 -4.203125 C 2.082031 -4.296875 1.945312 -4.367188 1.78125 -4.421875 C 1.613281 -4.472656 1.410156 -4.5 1.171875 -4.5 Z M 1.0625 -4.5 "/></g></g></g></g><g fill="#a1907f" fill-opacity="1"><g transform="translate(6.315635, 6.885286)"><g><path d="M 3.203125 -0.078125 L 3.234375 -0.078125 C 3.265625 -0.078125 3.296875 -0.0859375 3.328125 -0.109375 C 3.359375 -0.140625 3.382812 -0.175781 3.40625 -0.21875 C 3.425781 -0.257812 3.441406 -0.300781 3.453125 -0.34375 C 3.460938 -0.382812 3.46875 -0.425781 3.46875 -0.46875 L 3.46875 -2.421875 L 1.15625 -2.421875 L 1.15625 -0.46875 C 1.15625 -0.425781 1.160156 -0.382812 1.171875 -0.34375 C 1.179688 -0.300781 1.195312 -0.257812 1.21875 -0.21875 C 1.238281 -0.175781 1.257812 -0.140625 1.28125 -0.109375 C 1.3125 -0.0859375 1.347656 -0.078125 1.390625 -0.078125 L 1.421875 -0.078125 L 1.421875 0 L 0.40625 0 L 0.40625 -0.078125 L 0.453125 -0.078125 C 0.484375 -0.078125 0.507812 -0.0859375 0.53125 -0.109375 C 0.5625 -0.140625 0.585938 -0.175781 0.609375 -0.21875 C 0.628906 -0.257812 0.644531 -0.300781 0.65625 -0.34375 C 0.664062 -0.382812 0.671875 -0.425781 0.671875 -0.46875 L 0.671875 -4.3125 C 0.671875 -4.34375 0.664062 -4.378906 0.65625 -4.421875 C 0.644531 -4.460938 0.628906 -4.503906 0.609375 -4.546875 C 0.597656 -4.585938 0.578125 -4.617188 0.546875 -4.640625 C 0.515625 -4.671875 0.484375 -4.6875 0.453125 -4.6875 L 0.40625 -4.6875 L 0.40625 -4.75 L 1.421875 -4.75 L 1.421875 -4.6875 L 1.390625 -4.6875 C 1.347656 -4.6875 1.3125 -4.671875 1.28125 -4.640625 C 1.25 -4.617188 1.222656 -4.585938 1.203125 -4.546875 C 1.191406 -4.503906 1.179688 -4.460938 1.171875 -4.421875 C 1.160156 -4.378906 1.15625 -4.34375 1.15625 -4.3125 L 1.15625 -2.671875 L 3.46875 -2.671875 L 3.46875 -4.3125 C 3.46875 -4.34375 3.460938 -4.378906 3.453125 -4.421875 C 3.441406 -4.460938 3.425781 -4.503906 3.40625 -4.546875 C 3.382812 -4.585938 3.359375 -4.617188 3.328125 -4.640625 C 3.304688 -4.671875 3.273438 -4.6875 3.234375 -4.6875 L 3.203125 -4.6875 L 3.203125 -4.75 L 4.203125 -4.75 L 4.203125 -4.6875 L 4.171875 -4.6875 C 4.128906 -4.6875 4.09375 -4.671875 4.0625 -4.640625 C 4.039062 -4.617188 4.019531 -4.585938 4 -4.546875 C 3.976562 -4.503906 3.960938 -4.460938 3.953125 -4.421875 C 3.953125 -4.378906 3.953125 -4.34375 3.953125 -4.3125 L 3.953125 -0.46875 C 3.953125 -0.425781 3.957031 -0.382812 3.96875 -0.34375 C 3.976562 -0.300781 3.992188 -0.257812 4.015625 -0.21875 C 4.035156 -0.175781 4.054688 -0.140625 4.078125 -0.109375 C 4.109375 -0.0859375 4.140625 -0.078125 4.171875 -0.078125 L 4.203125 -0.078125 L 4.203125 0 L 3.203125 0 Z M 3.203125 -0.078125 "/></g></g></g><g fill="#a1907f" fill-opacity="1"><g transform="translate(13.57976, 6.885286)"><g><path d="M 2.75 -4.828125 C 3.125 -4.828125 3.457031 -4.757812 3.75 -4.625 C 4.050781 -4.5 4.304688 -4.320312 4.515625 -4.09375 C 4.722656 -3.875 4.882812 -3.613281 5 -3.3125 C 5.113281 -3.019531 5.171875 -2.710938 5.171875 -2.390625 C 5.171875 -2.023438 5.101562 -1.691406 4.96875 -1.390625 C 4.84375 -1.085938 4.660156 -0.828125 4.421875 -0.609375 C 4.191406 -0.398438 3.925781 -0.234375 3.625 -0.109375 C 3.320312 0.015625 3 0.078125 2.65625 0.078125 C 2.28125 0.078125 1.941406 0.0078125 1.640625 -0.125 C 1.347656 -0.257812 1.097656 -0.4375 0.890625 -0.65625 C 0.691406 -0.882812 0.535156 -1.140625 0.421875 -1.421875 C 0.316406 -1.710938 0.265625 -2.015625 0.265625 -2.328125 C 0.265625 -2.628906 0.316406 -2.929688 0.421875 -3.234375 C 0.535156 -3.535156 0.695312 -3.800781 0.90625 -4.03125 C 1.125 -4.269531 1.382812 -4.460938 1.6875 -4.609375 C 2 -4.753906 2.351562 -4.828125 2.75 -4.828125 Z M 2.75 -0.1875 C 3.070312 -0.195312 3.351562 -0.265625 3.59375 -0.390625 C 3.832031 -0.523438 4.03125 -0.691406 4.1875 -0.890625 C 4.351562 -1.097656 4.476562 -1.320312 4.5625 -1.5625 C 4.644531 -1.8125 4.6875 -2.0625 4.6875 -2.3125 C 4.6875 -2.570312 4.632812 -2.835938 4.53125 -3.109375 C 4.4375 -3.378906 4.300781 -3.617188 4.125 -3.828125 C 3.945312 -4.046875 3.734375 -4.222656 3.484375 -4.359375 C 3.242188 -4.503906 2.96875 -4.578125 2.65625 -4.578125 C 2.363281 -4.578125 2.097656 -4.507812 1.859375 -4.375 C 1.617188 -4.238281 1.414062 -4.066406 1.25 -3.859375 C 1.09375 -3.660156 0.96875 -3.429688 0.875 -3.171875 C 0.789062 -2.921875 0.75 -2.671875 0.75 -2.421875 C 0.75 -2.160156 0.796875 -1.894531 0.890625 -1.625 C 0.992188 -1.363281 1.132812 -1.125 1.3125 -0.90625 C 1.488281 -0.6875 1.695312 -0.507812 1.9375 -0.375 C 2.1875 -0.25 2.457031 -0.1875 2.75 -0.1875 Z M 2.75 -0.1875 "/></g></g></g><g fill="#a1907f" fill-opacity="1"><g transform="translate(21.845589, 6.885286)"><g><path d="M 2.140625 -0.078125 L 2.1875 -0.078125 L 2.1875 0 L 1.15625 0 L 1.15625 -0.078125 L 1.203125 -0.078125 C 1.234375 -0.078125 1.265625 -0.0859375 1.296875 -0.109375 C 1.328125 -0.140625 1.351562 -0.175781 1.375 -0.21875 C 1.394531 -0.257812 1.410156 -0.300781 1.421875 -0.34375 C 1.429688 -0.382812 1.4375 -0.425781 1.4375 -0.46875 L 1.4375 -4.484375 L 0.59375 -4.484375 C 0.519531 -4.484375 0.453125 -4.46875 0.390625 -4.4375 C 0.335938 -4.40625 0.289062 -4.363281 0.25 -4.3125 C 0.207031 -4.257812 0.175781 -4.203125 0.15625 -4.140625 C 0.144531 -4.085938 0.140625 -4.03125 0.140625 -3.96875 L 0.0625 -3.96875 L 0.0625 -4.75 L 3.296875 -4.75 L 3.296875 -3.96875 L 3.234375 -3.96875 C 3.234375 -4.03125 3.222656 -4.085938 3.203125 -4.140625 C 3.179688 -4.203125 3.148438 -4.257812 3.109375 -4.3125 C 3.066406 -4.363281 3.015625 -4.40625 2.953125 -4.4375 C 2.898438 -4.46875 2.835938 -4.484375 2.765625 -4.484375 L 1.921875 -4.484375 L 1.921875 -0.46875 C 1.921875 -0.425781 1.921875 -0.382812 1.921875 -0.34375 C 1.929688 -0.300781 1.945312 -0.257812 1.96875 -0.21875 C 2 -0.175781 2.023438 -0.140625 2.046875 -0.109375 C 2.078125 -0.0859375 2.109375 -0.078125 2.140625 -0.078125 Z M 2.140625 -0.078125 "/></g></g></g><g fill="#a1907f" fill-opacity="1"><g transform="translate(27.999918, 6.885286)"><g><path d="M 2.75 -4.828125 C 3.125 -4.828125 3.457031 -4.757812 3.75 -4.625 C 4.050781 -4.5 4.304688 -4.320312 4.515625 -4.09375 C 4.722656 -3.875 4.882812 -3.613281 5 -3.3125 C 5.113281 -3.019531 5.171875 -2.710938 5.171875 -2.390625 C 5.171875 -2.023438 5.101562 -1.691406 4.96875 -1.390625 C 4.84375 -1.085938 4.660156 -0.828125 4.421875 -0.609375 C 4.191406 -0.398438 3.925781 -0.234375 3.625 -0.109375 C 3.320312 0.015625 3 0.078125 2.65625 0.078125 C 2.28125 0.078125 1.941406 0.0078125 1.640625 -0.125 C 1.347656 -0.257812 1.097656 -0.4375 0.890625 -0.65625 C 0.691406 -0.882812 0.535156 -1.140625 0.421875 -1.421875 C 0.316406 -1.710938 0.265625 -2.015625 0.265625 -2.328125 C 0.265625 -2.628906 0.316406 -2.929688 0.421875 -3.234375 C 0.535156 -3.535156 0.695312 -3.800781 0.90625 -4.03125 C 1.125 -4.269531 1.382812 -4.460938 1.6875 -4.609375 C 2 -4.753906 2.351562 -4.828125 2.75 -4.828125 Z M 2.75 -0.1875 C 3.070312 -0.195312 3.351562 -0.265625 3.59375 -0.390625 C 3.832031 -0.523438 4.03125 -0.691406 4.1875 -0.890625 C 4.351562 -1.097656 4.476562 -1.320312 4.5625 -1.5625 C 4.644531 -1.8125 4.6875 -2.0625 4.6875 -2.3125 C 4.6875 -2.570312 4.632812 -2.835938 4.53125 -3.109375 C 4.4375 -3.378906 4.300781 -3.617188 4.125 -3.828125 C 3.945312 -4.046875 3.734375 -4.222656 3.484375 -4.359375 C 3.242188 -4.503906 2.96875 -4.578125 2.65625 -4.578125 C 2.363281 -4.578125 2.097656 -4.507812 1.859375 -4.375 C 1.617188 -4.238281 1.414062 -4.066406 1.25 -3.859375 C 1.09375 -3.660156 0.96875 -3.429688 0.875 -3.171875 C 0.789062 -2.921875 0.75 -2.671875 0.75 -2.421875 C 0.75 -2.160156 0.796875 -1.894531 0.890625 -1.625 C 0.992188 -1.363281 1.132812 -1.125 1.3125 -0.90625 C 1.488281 -0.6875 1.695312 -0.507812 1.9375 -0.375 C 2.1875 -0.25 2.457031 -0.1875 2.75 -0.1875 Z M 2.75 -0.1875 "/></g></g></g><g fill="#a1907f" fill-opacity="1"><g transform="translate(36.265747, 6.885286)"><g><path d="M 3.421875 -2.5 L 4.453125 -2.5 L 4.453125 -2.4375 L 4.421875 -2.4375 C 4.378906 -2.4375 4.34375 -2.421875 4.3125 -2.390625 C 4.28125 -2.367188 4.253906 -2.335938 4.234375 -2.296875 C 4.222656 -2.253906 4.207031 -2.210938 4.1875 -2.171875 C 4.175781 -2.128906 4.171875 -2.09375 4.171875 -2.0625 L 4.171875 -0.125 C 4.085938 -0.09375 3.988281 -0.0625 3.875 -0.03125 C 3.769531 -0.0078125 3.65625 0.00390625 3.53125 0.015625 C 3.414062 0.0351562 3.296875 0.0507812 3.171875 0.0625 C 3.046875 0.0703125 2.929688 0.078125 2.828125 0.078125 C 2.390625 0.078125 2.007812 0.00390625 1.6875 -0.140625 C 1.363281 -0.285156 1.097656 -0.472656 0.890625 -0.703125 C 0.679688 -0.941406 0.523438 -1.207031 0.421875 -1.5 C 0.316406 -1.789062 0.265625 -2.085938 0.265625 -2.390625 C 0.265625 -2.679688 0.316406 -2.972656 0.421875 -3.265625 C 0.523438 -3.554688 0.679688 -3.816406 0.890625 -4.046875 C 1.109375 -4.285156 1.378906 -4.472656 1.703125 -4.609375 C 2.023438 -4.753906 2.410156 -4.828125 2.859375 -4.828125 C 3.023438 -4.828125 3.179688 -4.8125 3.328125 -4.78125 C 3.472656 -4.75 3.597656 -4.722656 3.703125 -4.703125 C 3.765625 -4.691406 3.816406 -4.675781 3.859375 -4.65625 C 3.910156 -4.644531 3.953125 -4.640625 3.984375 -4.640625 L 4.0625 -4.640625 L 4.0625 -3.875 L 3.984375 -3.875 C 3.953125 -4.03125 3.894531 -4.148438 3.8125 -4.234375 C 3.726562 -4.328125 3.628906 -4.398438 3.515625 -4.453125 C 3.410156 -4.503906 3.296875 -4.535156 3.171875 -4.546875 C 3.046875 -4.566406 2.929688 -4.578125 2.828125 -4.578125 C 2.472656 -4.578125 2.160156 -4.507812 1.890625 -4.375 C 1.628906 -4.25 1.414062 -4.085938 1.25 -3.890625 C 1.082031 -3.691406 0.957031 -3.460938 0.875 -3.203125 C 0.789062 -2.953125 0.75 -2.703125 0.75 -2.453125 C 0.75 -2.171875 0.800781 -1.894531 0.90625 -1.625 C 1.007812 -1.351562 1.15625 -1.109375 1.34375 -0.890625 C 1.539062 -0.679688 1.773438 -0.507812 2.046875 -0.375 C 2.316406 -0.25 2.617188 -0.1875 2.953125 -0.1875 C 3.046875 -0.1875 3.160156 -0.195312 3.296875 -0.21875 C 3.429688 -0.238281 3.5625 -0.289062 3.6875 -0.375 L 3.6875 -2.0625 C 3.6875 -2.09375 3.679688 -2.128906 3.671875 -2.171875 C 3.671875 -2.210938 3.65625 -2.253906 3.625 -2.296875 C 3.601562 -2.335938 3.578125 -2.367188 3.546875 -2.390625 C 3.523438 -2.421875 3.492188 -2.4375 3.453125 -2.4375 L 3.421875 -2.4375 Z M 3.421875 -2.5 "/></g></g></g><g fill="#a1907f" fill-opacity="1"><g transform="translate(43.782096, 6.885286)"><g><path d="M 1.296875 -0.078125 L 1.34375 -0.078125 L 1.34375 0 L 0.328125 0 L 0.328125 -0.078125 L 0.359375 -0.078125 C 0.390625 -0.078125 0.421875 -0.0859375 0.453125 -0.109375 C 0.484375 -0.140625 0.507812 -0.175781 0.53125 -0.21875 C 0.550781 -0.257812 0.566406 -0.300781 0.578125 -0.34375 C 0.585938 -0.382812 0.59375 -0.425781 0.59375 -0.46875 L 0.59375 -4.3125 C 0.59375 -4.34375 0.585938 -4.378906 0.578125 -4.421875 C 0.566406 -4.460938 0.550781 -4.503906 0.53125 -4.546875 C 0.507812 -4.585938 0.484375 -4.617188 0.453125 -4.640625 C 0.421875 -4.671875 0.390625 -4.6875 0.359375 -4.6875 L 0.328125 -4.6875 L 0.328125 -4.75 L 1.578125 -4.75 C 2.054688 -4.75 2.425781 -4.65625 2.6875 -4.46875 C 2.945312 -4.28125 3.078125 -4.003906 3.078125 -3.640625 C 3.078125 -3.460938 3.046875 -3.300781 2.984375 -3.15625 C 2.929688 -3.019531 2.851562 -2.90625 2.75 -2.8125 C 2.644531 -2.71875 2.523438 -2.640625 2.390625 -2.578125 C 2.253906 -2.515625 2.109375 -2.46875 1.953125 -2.4375 L 2.484375 -1.65625 C 2.609375 -1.457031 2.734375 -1.265625 2.859375 -1.078125 C 2.984375 -0.898438 3.109375 -0.710938 3.234375 -0.515625 C 3.273438 -0.460938 3.316406 -0.410156 3.359375 -0.359375 C 3.398438 -0.304688 3.441406 -0.257812 3.484375 -0.21875 C 3.523438 -0.175781 3.570312 -0.140625 3.625 -0.109375 C 3.675781 -0.0859375 3.726562 -0.078125 3.78125 -0.078125 L 3.78125 0 L 3.46875 0 C 3.28125 0 3.125 -0.046875 3 -0.140625 C 2.875 -0.234375 2.769531 -0.34375 2.6875 -0.46875 C 2.476562 -0.78125 2.265625 -1.097656 2.046875 -1.421875 C 1.835938 -1.753906 1.625 -2.082031 1.40625 -2.40625 C 1.351562 -2.40625 1.296875 -2.40625 1.234375 -2.40625 C 1.179688 -2.414062 1.128906 -2.425781 1.078125 -2.4375 L 1.078125 -0.46875 C 1.078125 -0.425781 1.082031 -0.382812 1.09375 -0.34375 C 1.101562 -0.300781 1.117188 -0.257812 1.140625 -0.21875 C 1.160156 -0.175781 1.179688 -0.140625 1.203125 -0.109375 C 1.234375 -0.0859375 1.265625 -0.078125 1.296875 -0.078125 Z M 1.078125 -4.515625 L 1.078125 -2.671875 L 1.109375 -2.671875 C 1.148438 -2.671875 1.210938 -2.671875 1.296875 -2.671875 C 1.378906 -2.671875 1.484375 -2.671875 1.609375 -2.671875 C 1.703125 -2.671875 1.804688 -2.6875 1.921875 -2.71875 C 2.035156 -2.75 2.140625 -2.800781 2.234375 -2.875 C 2.335938 -2.945312 2.421875 -3.039062 2.484375 -3.15625 C 2.546875 -3.28125 2.578125 -3.429688 2.578125 -3.609375 C 2.578125 -3.796875 2.539062 -3.945312 2.46875 -4.0625 C 2.40625 -4.175781 2.3125 -4.265625 2.1875 -4.328125 C 2.070312 -4.398438 1.925781 -4.445312 1.75 -4.46875 C 1.570312 -4.5 1.382812 -4.515625 1.1875 -4.515625 Z M 1.078125 -4.515625 "/></g></g></g><g fill="#a1907f" fill-opacity="1"><g transform="translate(50.455285, 6.885286)"><g><path d="M 3.078125 -0.078125 L 3.109375 -0.078125 C 3.222656 -0.078125 3.28125 -0.128906 3.28125 -0.234375 C 3.28125 -0.265625 3.273438 -0.304688 3.265625 -0.359375 L 2.609375 -2.109375 L 1.359375 -2.109375 L 0.734375 -0.375 C 0.710938 -0.34375 0.703125 -0.3125 0.703125 -0.28125 C 0.703125 -0.21875 0.71875 -0.164062 0.75 -0.125 C 0.789062 -0.09375 0.828125 -0.078125 0.859375 -0.078125 L 0.90625 -0.078125 L 0.90625 0 L 0.09375 0 L 0.09375 -0.078125 L 0.140625 -0.078125 C 0.203125 -0.078125 0.257812 -0.113281 0.3125 -0.1875 C 0.375 -0.257812 0.425781 -0.347656 0.46875 -0.453125 L 2.125 -4.84375 L 3.734375 -0.484375 C 3.765625 -0.390625 3.8125 -0.296875 3.875 -0.203125 C 3.9375 -0.117188 4.015625 -0.078125 4.109375 -0.078125 L 4.140625 -0.078125 L 4.140625 0 L 3.078125 0 Z M 1.421875 -2.34375 L 2.53125 -2.34375 L 1.984375 -3.859375 Z M 1.421875 -2.34375 "/></g></g></g><g fill="#a1907f" fill-opacity="1"><g transform="translate(57.488805, 6.885286)"><g><path d="M 0.3125 -4.75 L 1.34375 -4.75 C 1.875 -4.75 2.273438 -4.644531 2.546875 -4.4375 C 2.828125 -4.238281 2.96875 -3.953125 2.96875 -3.578125 C 2.96875 -3.378906 2.914062 -3.195312 2.8125 -3.03125 C 2.71875 -2.875 2.59375 -2.742188 2.4375 -2.640625 C 2.289062 -2.535156 2.117188 -2.453125 1.921875 -2.390625 C 1.722656 -2.335938 1.53125 -2.3125 1.34375 -2.3125 L 1.0625 -2.3125 L 1.0625 -0.46875 C 1.0625 -0.425781 1.066406 -0.382812 1.078125 -0.34375 C 1.085938 -0.300781 1.101562 -0.257812 1.125 -0.21875 C 1.144531 -0.175781 1.164062 -0.140625 1.1875 -0.109375 C 1.21875 -0.0859375 1.253906 -0.078125 1.296875 -0.078125 L 1.328125 -0.078125 L 1.328125 0 L 0.3125 0 L 0.3125 -0.078125 L 0.359375 -0.078125 C 0.390625 -0.078125 0.414062 -0.0859375 0.4375 -0.109375 C 0.46875 -0.140625 0.492188 -0.175781 0.515625 -0.21875 C 0.535156 -0.257812 0.550781 -0.300781 0.5625 -0.34375 C 0.570312 -0.382812 0.578125 -0.425781 0.578125 -0.46875 L 0.578125 -4.3125 C 0.578125 -4.375 0.554688 -4.445312 0.515625 -4.53125 C 0.484375 -4.625 0.429688 -4.675781 0.359375 -4.6875 L 0.3125 -4.6875 Z M 1.0625 -4.5 L 1.0625 -2.5625 L 1.28125 -2.5625 C 1.46875 -2.5625 1.640625 -2.585938 1.796875 -2.640625 C 1.953125 -2.691406 2.078125 -2.757812 2.171875 -2.84375 C 2.273438 -2.925781 2.351562 -3.023438 2.40625 -3.140625 C 2.457031 -3.253906 2.484375 -3.367188 2.484375 -3.484375 C 2.484375 -3.617188 2.457031 -3.75 2.40625 -3.875 C 2.363281 -4 2.289062 -4.109375 2.1875 -4.203125 C 2.082031 -4.296875 1.945312 -4.367188 1.78125 -4.421875 C 1.613281 -4.472656 1.410156 -4.5 1.171875 -4.5 Z M 1.0625 -4.5 "/></g></g></g><g fill="#a1907f" fill-opacity="1"><g transform="translate(63.527832, 6.885286)"><g><path d="M 3.203125 -0.078125 L 3.234375 -0.078125 C 3.265625 -0.078125 3.296875 -0.0859375 3.328125 -0.109375 C 3.359375 -0.140625 3.382812 -0.175781 3.40625 -0.21875 C 3.425781 -0.257812 3.441406 -0.300781 3.453125 -0.34375 C 3.460938 -0.382812 3.46875 -0.425781 3.46875 -0.46875 L 3.46875 -2.421875 L 1.15625 -2.421875 L 1.15625 -0.46875 C 1.15625 -0.425781 1.160156 -0.382812 1.171875 -0.34375 C 1.179688 -0.300781 1.195312 -0.257812 1.21875 -0.21875 C 1.238281 -0.175781 1.257812 -0.140625 1.28125 -0.109375 C 1.3125 -0.0859375 1.347656 -0.078125 1.390625 -0.078125 L 1.421875 -0.078125 L 1.421875 0 L 0.40625 0 L 0.40625 -0.078125 L 0.453125 -0.078125 C 0.484375 -0.078125 0.507812 -0.0859375 0.53125 -0.109375 C 0.5625 -0.140625 0.585938 -0.175781 0.609375 -0.21875 C 0.628906 -0.257812 0.644531 -0.300781 0.65625 -0.34375 C 0.664062 -0.382812 0.671875 -0.425781 0.671875 -0.46875 L 0.671875 -4.3125 C 0.671875 -4.34375 0.664062 -4.378906 0.65625 -4.421875 C 0.644531 -4.460938 0.628906 -4.503906 0.609375 -4.546875 C 0.597656 -4.585938 0.578125 -4.617188 0.546875 -4.640625 C 0.515625 -4.671875 0.484375 -4.6875 0.453125 -4.6875 L 0.40625 -4.6875 L 0.40625 -4.75 L 1.421875 -4.75 L 1.421875 -4.6875 L 1.390625 -4.6875 C 1.347656 -4.6875 1.3125 -4.671875 1.28125 -4.640625 C 1.25 -4.617188 1.222656 -4.585938 1.203125 -4.546875 C 1.191406 -4.503906 1.179688 -4.460938 1.171875 -4.421875 C 1.160156 -4.378906 1.15625 -4.34375 1.15625 -4.3125 L 1.15625 -2.671875 L 3.46875 -2.671875 L 3.46875 -4.3125 C 3.46875 -4.34375 3.460938 -4.378906 3.453125 -4.421875 C 3.441406 -4.460938 3.425781 -4.503906 3.40625 -4.546875 C 3.382812 -4.585938 3.359375 -4.617188 3.328125 -4.640625 C 3.304688 -4.671875 3.273438 -4.6875 3.234375 -4.6875 L 3.203125 -4.6875 L 3.203125 -4.75 L 4.203125 -4.75 L 4.203125 -4.6875 L 4.171875 -4.6875 C 4.128906 -4.6875 4.09375 -4.671875 4.0625 -4.640625 C 4.039062 -4.617188 4.019531 -4.585938 4 -4.546875 C 3.976562 -4.503906 3.960938 -4.460938 3.953125 -4.421875 C 3.953125 -4.378906 3.953125 -4.34375 3.953125 -4.3125 L 3.953125 -0.46875 C 3.953125 -0.425781 3.957031 -0.382812 3.96875 -0.34375 C 3.976562 -0.300781 3.992188 -0.257812 4.015625 -0.21875 C 4.035156 -0.175781 4.054688 -0.140625 4.078125 -0.109375 C 4.109375 -0.0859375 4.140625 -0.078125 4.171875 -0.078125 L 4.203125 -0.078125 L 4.203125 0 L 3.203125 0 Z M 3.203125 -0.078125 "/></g></g></g><g fill="#a1907f" fill-opacity="1"><g transform="translate(70.791959, 6.885286)"><g><path d="M 0.015625 -4.75 L 1.015625 -4.75 L 1.015625 -4.6875 C 0.984375 -4.675781 0.953125 -4.660156 0.921875 -4.640625 C 0.890625 -4.617188 0.875 -4.582031 0.875 -4.53125 C 0.875 -4.507812 0.882812 -4.484375 0.90625 -4.453125 L 1.984375 -2.5625 L 3.015625 -4.34375 C 3.035156 -4.382812 3.046875 -4.414062 3.046875 -4.4375 C 3.054688 -4.457031 3.0625 -4.484375 3.0625 -4.515625 C 3.050781 -4.585938 3.023438 -4.632812 2.984375 -4.65625 C 2.941406 -4.675781 2.914062 -4.6875 2.90625 -4.6875 L 2.90625 -4.75 L 3.671875 -4.75 L 3.671875 -4.6875 C 3.597656 -4.6875 3.523438 -4.640625 3.453125 -4.546875 C 3.378906 -4.460938 3.316406 -4.375 3.265625 -4.28125 L 2.140625 -2.328125 L 2.140625 -0.46875 C 2.140625 -0.425781 2.144531 -0.382812 2.15625 -0.34375 C 2.164062 -0.300781 2.179688 -0.257812 2.203125 -0.21875 C 2.222656 -0.175781 2.242188 -0.140625 2.265625 -0.109375 C 2.296875 -0.0859375 2.332031 -0.078125 2.375 -0.078125 L 2.40625 -0.078125 L 2.40625 0 L 1.390625 0 L 1.390625 -0.078125 L 1.421875 -0.078125 C 1.460938 -0.078125 1.492188 -0.0859375 1.515625 -0.109375 C 1.546875 -0.140625 1.570312 -0.175781 1.59375 -0.21875 C 1.613281 -0.257812 1.628906 -0.300781 1.640625 -0.34375 C 1.648438 -0.382812 1.65625 -0.425781 1.65625 -0.46875 L 1.65625 -2.265625 L 0.5 -4.25 C 0.476562 -4.289062 0.445312 -4.332031 0.40625 -4.375 C 0.375 -4.425781 0.335938 -4.472656 0.296875 -4.515625 C 0.265625 -4.566406 0.222656 -4.609375 0.171875 -4.640625 C 0.128906 -4.671875 0.09375 -4.6875 0.0625 -4.6875 L 0.015625 -4.6875 Z M 0.015625 -4.75 "/></g></g></g></g></g></g></svg>