<svg width="25" height="23" viewBox="0 0 25 23" fill="none" xmlns="http://www.w3.org/2000/svg">
<path d="M20.1613 23H4.50905C2.34613 23 0.579102 21.2715 0.579102 19.1556V3.84435C0.579102 1.72854 2.34613 0 4.50905 0H20.1613C22.3242 0 24.0912 1.72854 24.0912 3.84435V19.1556C24.0912 21.2809 22.3338 23 20.1613 23Z" fill="#CBB9A8"/>
<path d="M12.3396 17.4081C10.7271 17.4081 9.21111 16.7941 8.07172 15.6795C6.93232 14.5649 6.30469 13.082 6.30469 11.5046C6.30469 9.92715 6.93232 8.4442 8.07172 7.32962C9.21111 6.21504 10.7271 5.60107 12.3396 5.60107C13.9522 5.60107 15.4681 6.21504 16.6075 7.32962C17.7469 8.4442 18.3746 9.92715 18.3746 11.5046C18.3746 13.082 17.7469 14.5649 16.6075 15.6795C15.4585 16.7941 13.9522 17.4081 12.3396 17.4081ZM12.3396 6.85734C9.72288 6.85734 7.58892 8.93537 7.58892 11.5046C7.58892 14.0643 9.71322 16.1518 12.3396 16.1518C14.9564 16.1518 17.0903 14.0738 17.0903 11.5046C17.0807 8.94481 14.9564 6.85734 12.3396 6.85734Z" fill="#E7E0D9"/>
<path d="M19.5513 5.40713C20.1913 5.40713 20.7101 4.89965 20.7101 4.27364C20.7101 3.64762 20.1913 3.14014 19.5513 3.14014C18.9114 3.14014 18.3926 3.64762 18.3926 4.27364C18.3926 4.89965 18.9114 5.40713 19.5513 5.40713Z" fill="#E7E0D9"/>
</svg>
